<svg width="350" height="364" viewBox="0 0 350 364" fill="none" xmlns="http://www.w3.org/2000/svg">
<path d="M229.392 222.275C230.257 219.042 229.813 215.667 228.14 212.769L202.061 167.595C199.829 163.731 195.668 161.328 191.199 161.328C189.013 161.328 186.852 161.91 184.95 163.009L171.355 170.859C165.83 166.806 159.855 163.333 153.521 160.527V144.865C153.521 137.957 147.9 132.339 140.994 132.339H88.8304C81.9244 132.339 76.3054 137.957 76.3054 144.865V160.526C69.9704 163.332 63.9964 166.806 58.4704 170.859L44.8754 163.01C42.9734 161.911 40.8114 161.33 38.6254 161.33C34.1574 161.33 29.9964 163.731 27.7644 167.596L1.68437 212.768C0.0113705 215.667 -0.433629 219.042 0.431371 222.275C1.29837 225.507 3.37037 228.209 6.26737 229.88L19.8244 237.706C19.4594 241.097 19.2654 244.538 19.2654 248.024C19.2654 251.51 19.4584 254.952 19.8244 258.343L6.26737 266.17C3.36937 267.842 1.29837 270.543 0.431371 273.776C-0.433629 277.007 0.0113705 280.384 1.68437 283.281L27.7634 328.455C29.9954 332.32 34.1574 334.721 38.6244 334.721C40.8104 334.721 42.9724 334.141 44.8744 333.041L58.4704 325.192C63.9954 329.244 69.9704 332.718 76.3044 335.524V351.185C76.3044 354.531 77.6074 357.676 79.9744 360.042C82.3404 362.407 85.4864 363.712 88.8294 363.712H140.993C147.899 363.712 153.52 358.092 153.52 351.185V335.523C159.854 332.717 165.828 329.244 171.353 325.191L184.949 333.04C186.851 334.14 189.013 334.72 191.198 334.72C195.668 334.72 199.828 332.32 202.06 328.454L228.139 283.28C229.812 280.383 230.256 277.007 229.391 273.775C228.526 270.542 226.453 267.84 223.557 266.169L210 258.341C210.365 254.95 210.558 251.508 210.558 248.022C210.558 244.536 210.366 241.094 210 237.704L223.557 229.877C226.455 228.209 228.527 225.508 229.392 222.275ZM114.912 302.423C84.8694 302.423 60.5164 278.069 60.5164 248.026C60.5164 217.985 84.8704 193.63 114.912 193.63C144.954 193.63 169.309 217.985 169.309 248.026C169.309 278.068 144.955 302.423 114.912 302.423Z" fill="url(#paint0_linear)" fill-opacity="0.1"/>
<path d="M160.654 93.593C160.082 95.733 160.377 97.967 161.484 99.883L178.74 129.775C180.219 132.334 182.971 133.921 185.928 133.921C187.375 133.921 188.804 133.537 190.065 132.81L199.067 127.613C202.721 130.293 206.673 132.585 210.862 134.44V144.817C210.862 147.031 211.723 149.112 213.29 150.678C214.856 152.244 216.937 153.105 219.15 153.105H253.667C258.237 153.105 261.957 149.387 261.957 144.817V134.44C266.145 132.584 270.097 130.292 273.751 127.612L282.755 132.81C284.013 133.538 285.443 133.921 286.89 133.921C289.847 133.921 292.601 132.333 294.078 129.775L311.334 99.883C312.442 97.967 312.736 95.733 312.164 93.593C311.59 91.454 310.22 89.667 308.303 88.56L299.328 83.378C299.569 81.135 299.701 78.859 299.701 76.553C299.701 74.247 299.569 71.972 299.328 69.728L308.303 64.547C310.22 63.44 311.59 61.652 312.164 59.513C312.736 57.374 312.441 55.141 311.334 53.223L294.078 23.331C292.601 20.773 289.848 19.184 286.89 19.184C285.443 19.184 284.013 19.569 282.755 20.297L273.751 25.495C270.097 22.815 266.146 20.523 261.957 18.668V8.289C261.957 3.719 258.237 0 253.667 0H219.15C214.58 0 210.862 3.719 210.862 8.289V18.667C206.674 20.523 202.721 22.815 199.068 25.494L190.065 20.296C188.804 19.567 187.376 19.183 185.928 19.183C182.972 19.183 180.219 20.773 178.74 23.33L161.484 53.222C160.377 55.14 160.082 57.373 160.654 59.512C161.228 61.652 162.599 63.439 164.515 64.546L173.49 69.727C173.249 71.97 173.117 74.246 173.117 76.552C173.117 78.859 173.249 81.134 173.49 83.377L164.515 88.559C162.599 89.667 161.228 91.454 160.654 93.593ZM236.408 40.558C256.289 40.558 272.404 56.674 272.404 76.553C272.404 96.432 256.289 112.548 236.408 112.548C216.528 112.548 200.413 96.432 200.413 76.553C200.413 56.674 216.528 40.558 236.408 40.558Z" fill="url(#paint1_linear)" fill-opacity="0.1"/>
<path d="M347.145 209.477L340.966 205.91C341.133 204.366 341.224 202.799 341.224 201.211C341.224 199.623 341.133 198.057 340.966 196.512L347.145 192.945C348.464 192.183 349.408 190.953 349.802 189.48C350.197 188.007 349.993 186.47 349.232 185.15L337.352 164.574C336.335 162.812 334.441 161.719 332.406 161.719C331.41 161.719 330.426 161.984 329.558 162.485L323.361 166.063C320.845 164.218 318.125 162.64 315.242 161.363V154.219C315.242 151.074 312.682 148.513 309.537 148.513H285.777C282.63 148.513 280.071 151.074 280.071 154.219V161.363C277.187 162.64 274.468 164.218 271.952 166.063L265.754 162.485C264.888 161.984 263.903 161.719 262.907 161.719C260.872 161.719 258.976 162.812 257.961 164.574L246.082 185.15C245.318 186.47 245.115 188.007 245.51 189.48C245.906 190.953 246.849 192.183 248.168 192.945L254.348 196.512C254.181 198.056 254.09 199.622 254.09 201.21C254.09 202.798 254.181 204.364 254.348 205.908L248.168 209.475C246.849 210.236 245.905 211.465 245.51 212.939C245.115 214.412 245.319 215.95 246.082 217.269L257.961 237.845C258.977 239.607 260.872 240.7 262.907 240.7C263.903 240.7 264.887 240.434 265.754 239.934L271.952 236.356C274.468 238.201 277.187 239.778 280.071 241.056V248.2C280.071 249.723 280.664 251.157 281.742 252.234C282.82 253.313 284.254 253.906 285.777 253.906H309.537C312.682 253.906 315.242 251.346 315.242 248.2V241.056C318.125 239.779 320.846 238.201 323.361 236.356L329.558 239.934C330.425 240.434 331.41 240.7 332.406 240.7C334.441 240.7 336.336 239.607 337.352 237.845L349.232 217.269C349.994 215.95 350.197 214.412 349.802 212.939C349.408 211.467 348.464 210.237 347.145 209.477ZM297.657 225.989C283.971 225.989 272.879 214.894 272.879 201.211C272.879 187.526 283.971 176.432 297.657 176.432C311.342 176.432 322.434 187.527 322.434 201.211C322.434 214.895 311.341 225.989 297.657 225.989Z" fill="url(#paint2_linear)" fill-opacity="0.1"/>
<defs>
<linearGradient id="paint0_linear" x1="114.912" y1="132.339" x2="114.912" y2="363.712" gradientUnits="userSpaceOnUse">
<stop stop-color="#B6EE5F"/>
<stop offset="1" stop-color="#6EF085"/>
</linearGradient>
<linearGradient id="paint1_linear" x1="236.41" y1="0" x2="236.41" y2="153.105" gradientUnits="userSpaceOnUse">
<stop stop-color="#B6EE5F"/>
<stop offset="1" stop-color="#6EF085"/>
</linearGradient>
<linearGradient id="paint2_linear" x1="297.656" y1="148.513" x2="297.656" y2="253.906" gradientUnits="userSpaceOnUse">
<stop stop-color="#B6EE5F"/>
<stop offset="1" stop-color="#6EF085"/>
</linearGradient>
</defs>
</svg>
